<svg width="76" height="76" viewBox="0 0 76 76" fill="none" xmlns="http://www.w3.org/2000/svg">
<path d="M37.999 75.998C58.9853 75.998 75.998 58.9853 75.998 37.999C75.998 17.0127 58.9853 0 37.999 0C17.0127 0 0 17.0127 0 37.999C0 58.9853 17.0127 75.998 37.999 75.998Z" fill="#F3AA05"/>
<path d="M35.5199 31.5004L36.6712 32.6817L38.0311 34.0737L38.0552 34.0657L58.4958 14.2529C55.8201 11.9302 52.8356 10.1451 49.6845 8.88549L37.9749 27.2702L36.1617 24.2415L26.9292 8.82532C23.8524 9.98865 20.92 11.6574 18.2644 13.8397L29.97 25.8221L35.5199 31.5004Z" fill="white"/>
<path d="M31.5004 40.4801L32.6817 39.3288L34.0737 37.9689L34.0657 37.9449L14.2509 17.5062C11.9282 20.1819 10.1431 23.1665 8.88348 26.3175L27.2682 38.0271L24.2395 39.8403L8.82331 49.0728C9.98865 52.1496 11.6574 55.08 13.8397 57.7356L25.8221 46.03L31.5004 40.4801Z" fill="white"/>
<path d="M40.4801 44.4997L39.3288 43.3183L37.9689 41.9263L37.9448 41.9343L17.5062 61.7471C20.1819 64.0698 23.1665 65.8549 26.3175 67.1145L38.0271 48.7298L39.8403 51.7585L49.0728 67.1747C52.1496 66.0093 55.08 64.3406 57.7356 62.1583L46.03 50.1759L40.4801 44.4997Z" fill="white"/>
<path d="M51.7585 36.1617L67.1747 26.9292C66.0093 23.8524 64.3406 20.922 62.1583 18.2664L50.1759 29.9719L44.4976 35.5198L43.3162 36.6712L41.9243 38.0311L41.9323 38.0551L61.7451 58.4958C64.0678 55.8201 65.8529 52.8355 67.1125 49.6845L48.7278 37.9749L51.7585 36.1617Z" fill="white"/>
</svg>