<svg width="150" height="50" viewBox="0 0 150 50" fill="none" xmlns="http://www.w3.org/2000/svg">
<path d="M149 18.8927V45C149 47.2091 147.209 49 145 49H15.5366C14.226 49 12.9986 48.358 12.2511 47.2816L1.71452 32.1089C1.24931 31.439 1 30.6429 1 29.8273V5C1 2.79086 2.79087 1 5.00001 1H135.352C136.663 1 137.89 1.64198 138.638 2.71842L148.285 16.6111C148.751 17.281 149 18.0771 149 18.8927Z" stroke="#F3AA05" stroke-linecap="round"/>
<path d="M42.008 31H40.248V19.512H42.008V31ZM51.4738 31H47.8418V19.512H51.4738C52.7004 19.512 53.7458 19.7573 54.6098 20.248C55.4738 20.728 56.1298 21.3947 56.5778 22.248C57.0258 23.1013 57.2498 24.088 57.2498 25.208C57.2498 26.3173 57.0204 27.3093 56.5618 28.184C56.1031 29.048 55.4364 29.736 54.5618 30.248C53.6978 30.7493 52.6684 31 51.4738 31ZM49.6018 21.032V29.48H51.3938C52.2791 29.48 53.0204 29.3093 53.6178 28.968C54.2258 28.616 54.6844 28.12 54.9938 27.48C55.3031 26.84 55.4578 26.0827 55.4578 25.208C55.4578 24.344 55.3031 23.6027 54.9938 22.984C54.6844 22.3547 54.2258 21.8747 53.6178 21.544C53.0204 21.2027 52.2791 21.032 51.3938 21.032H49.6018ZM66.3718 29.464V31H59.0918V19.512H66.2598V21.048H60.8518V24.312H65.7798V25.848H60.8518V29.464H66.3718ZM73.4435 31.24C72.6435 31.24 71.8968 31.0907 71.2035 30.792C70.5208 30.4827 69.9182 30.056 69.3955 29.512C68.8835 28.968 68.4835 28.3333 68.1955 27.608C67.9075 26.872 67.7635 26.0827 67.7635 25.24C67.7635 24.3973 67.9075 23.6133 68.1955 22.888C68.4835 22.1627 68.8835 21.5333 69.3955 21C69.9182 20.456 70.5208 20.0347 71.2035 19.736C71.8968 19.4267 72.6435 19.272 73.4435 19.272C74.4035 19.272 75.2782 19.4693 76.0675 19.864C76.8675 20.2587 77.5288 20.8133 78.0515 21.528C78.5848 22.2427 78.9208 23.0747 79.0595 24.024H77.1875C77.0808 23.4053 76.8515 22.856 76.4995 22.376C76.1475 21.896 75.7102 21.5227 75.1875 21.256C74.6755 20.9893 74.0995 20.856 73.4595 20.856C72.8942 20.856 72.3715 20.9627 71.8915 21.176C71.4222 21.3893 71.0115 21.6933 70.6595 22.088C70.3182 22.4827 70.0515 22.9467 69.8595 23.48C69.6782 24.0133 69.5875 24.6 69.5875 25.24C69.5875 25.88 69.6782 26.472 69.8595 27.016C70.0515 27.5493 70.3182 28.0133 70.6595 28.408C71.0115 28.8027 71.4222 29.112 71.8915 29.336C72.3715 29.5493 72.8942 29.656 73.4595 29.656C74.0995 29.656 74.6808 29.5227 75.2035 29.256C75.7262 28.9787 76.1582 28.6 76.4995 28.12C76.8515 27.64 77.0808 27.0907 77.1875 26.472H79.0595C78.9208 27.4213 78.5848 28.2533 78.0515 28.968C77.5288 29.6827 76.8675 30.2427 76.0675 30.648C75.2782 31.0427 74.4035 31.24 73.4435 31.24ZM87.8486 31H80.8886V19.512H82.6486V29.416H87.8486V31ZM91.3361 31H89.5761V19.512H91.3361V31ZM101.506 31L95.4581 22.024V31H93.8261V19.512H95.7461L101.65 28.248V19.512H103.282V31H101.506ZM113.044 29.464V31H105.764V19.512H112.932V21.048H107.524V24.312H112.452V25.848H107.524V29.464H113.044Z" fill="white"/>
</svg>
