<svg width="22" height="22" viewBox="0 0 22 22" fill="none" xmlns="http://www.w3.org/2000/svg">
<path d="M22 11C22 17.0751 17.0751 22 11 22C4.92487 22 0 17.0751 0 11C0 4.92487 4.92487 0 11 0C17.0751 0 22 4.92487 22 11Z" fill="#F3AA05"/>
<path d="M14 6V11.5252C14 12.1801 13.8708 12.7694 13.6125 13.2933C13.3541 13.8172 12.9666 14.2347 12.4498 14.5457C11.9331 14.8486 11.2832 15 10.5 15C9.72491 15 9.07901 14.8486 8.56228 14.5457C8.04556 14.2347 7.65398 13.8172 7.38754 13.2933C7.12918 12.7694 7 12.1801 7 11.5252H9.30104C9.30104 11.7872 9.3293 12.0246 9.38581 12.2374C9.44233 12.4502 9.55536 12.618 9.72491 12.7408C9.90254 12.8636 10.1609 12.925 10.5 12.925C10.8391 12.925 11.0934 12.8636 11.263 12.7408C11.4406 12.618 11.5577 12.4543 11.6142 12.2497C11.6707 12.0368 11.699 11.8076 11.699 11.5621V6H14Z" fill="#222222"/>
</svg>
