<svg width="27" height="34" viewBox="0 0 27 34" fill="none" xmlns="http://www.w3.org/2000/svg">
<path d="M27 0V20.8731C27 23.347 26.5017 25.5734 25.5052 27.5525C24.5087 29.5316 23.0138 31.1087 21.0208 32.2838C19.0277 33.4279 16.5208 34 13.5 34C10.5104 34 8.01903 33.4279 6.02595 32.2838C4.03287 31.1087 2.52249 29.5316 1.49481 27.5525C0.49827 25.5734 0 23.347 0 20.8731H8.87543C8.87543 21.8627 8.98443 22.7594 9.20242 23.5634C9.42041 24.3674 9.8564 25.0014 10.5104 25.4652C11.1955 25.9291 12.192 26.161 13.5 26.161C14.808 26.161 15.7889 25.9291 16.4429 25.4652C17.128 25.0014 17.5796 24.3829 17.7976 23.6098C18.0156 22.8058 18.1246 21.94 18.1246 21.0123V0H27Z" fill="#222222"/>
</svg>
