<svg width="25" height="25" viewBox="0 0 25 25" fill="none" xmlns="http://www.w3.org/2000/svg">
<g clip-path="url(#clip0_161_127)">
<path d="M23.4016 1.26123L13.9529 8.27888L15.7002 4.13857L23.4016 1.26123Z" fill="#E2761B" stroke="#E2761B" stroke-width="1.21019" stroke-linecap="round" stroke-linejoin="round"/>
<path d="M1.58887 1.26123L10.9616 8.34536L9.29974 4.13857L1.58887 1.26123Z" fill="#E4761B" stroke="#E4761B" stroke-width="1.21019" stroke-linecap="round" stroke-linejoin="round"/>
<path d="M20.0021 17.5282L17.4856 21.3836L22.87 22.8651L24.4178 17.6136L20.0021 17.5282Z" fill="#E4761B" stroke="#E4761B" stroke-width="1.21019" stroke-linecap="round" stroke-linejoin="round"/>
<path d="M0.591797 17.6136L2.13018 22.8651L7.51454 21.3836L4.99802 17.5282L0.591797 17.6136Z" fill="#E4761B" stroke="#E4761B" stroke-width="1.21019" stroke-linecap="round" stroke-linejoin="round"/>
<path d="M7.2106 11.0139L5.71021 13.2834L11.0565 13.5208L10.8667 7.77563L7.2106 11.0139Z" fill="#E4761B" stroke="#E4761B" stroke-width="1.21019" stroke-linecap="round" stroke-linejoin="round"/>
<path d="M17.7799 11.0138L14.0764 7.70911L13.9529 13.5207L19.2897 13.2834L17.7799 11.0138Z" fill="#E4761B" stroke="#E4761B" stroke-width="1.21019" stroke-linecap="round" stroke-linejoin="round"/>
<path d="M7.51465 21.3836L10.7244 19.8167L7.95143 17.6516L7.51465 21.3836Z" fill="#E4761B" stroke="#E4761B" stroke-width="1.21019" stroke-linecap="round" stroke-linejoin="round"/>
<path d="M14.2664 19.8167L17.4855 21.3836L17.0392 17.6516L14.2664 19.8167Z" fill="#E4761B" stroke="#E4761B" stroke-width="1.21019" stroke-linecap="round" stroke-linejoin="round"/>
<path d="M17.4855 21.3836L14.2664 19.8168L14.5227 21.9154L14.4943 22.7985L17.4855 21.3836Z" fill="#D7C1B3" stroke="#D7C1B3" stroke-width="1.21019" stroke-linecap="round" stroke-linejoin="round"/>
<path d="M7.51465 21.3836L10.5059 22.7985L10.4869 21.9154L10.7244 19.8168L7.51465 21.3836Z" fill="#D7C1B3" stroke="#D7C1B3" stroke-width="1.21019" stroke-linecap="round" stroke-linejoin="round"/>
<path d="M10.5532 16.2652L7.87524 15.477L9.76497 14.6129L10.5532 16.2652Z" fill="#233447" stroke="#233447" stroke-width="1.21019" stroke-linecap="round" stroke-linejoin="round"/>
<path d="M14.4373 16.2652L15.2255 14.6129L17.1247 15.477L14.4373 16.2652Z" fill="#233447" stroke="#233447" stroke-width="1.21019" stroke-linecap="round" stroke-linejoin="round"/>
<path d="M7.51452 21.3836L7.97033 17.5282L4.99805 17.6136L7.51452 21.3836Z" fill="#CD6116" stroke="#CD6116" stroke-width="1.21019" stroke-linecap="round" stroke-linejoin="round"/>
<path d="M17.0295 17.5282L17.4854 21.3836L20.0018 17.6136L17.0295 17.5282Z" fill="#CD6116" stroke="#CD6116" stroke-width="1.21019" stroke-linecap="round" stroke-linejoin="round"/>
<path d="M19.2897 13.2834L13.9529 13.5209L14.4467 16.2652L15.2349 14.6129L17.1341 15.4771L19.2897 13.2834Z" fill="#CD6116" stroke="#CD6116" stroke-width="1.21019" stroke-linecap="round" stroke-linejoin="round"/>
<path d="M7.87533 15.4771L9.77462 14.6129L10.5533 16.2652L11.0565 13.5209L5.71021 13.2834L7.87533 15.4771Z" fill="#CD6116" stroke="#CD6116" stroke-width="1.21019" stroke-linecap="round" stroke-linejoin="round"/>
<path d="M5.71021 13.2834L7.95137 17.6517L7.87533 15.4771L5.71021 13.2834Z" fill="#E4751F" stroke="#E4751F" stroke-width="1.21019" stroke-linecap="round" stroke-linejoin="round"/>
<path d="M17.134 15.4771L17.0391 17.6517L19.2896 13.2834L17.134 15.4771Z" fill="#E4751F" stroke="#E4751F" stroke-width="1.21019" stroke-linecap="round" stroke-linejoin="round"/>
<path d="M11.0566 13.5208L10.5532 16.2652L11.18 19.5034L11.3224 15.2396L11.0566 13.5208Z" fill="#E4751F" stroke="#E4751F" stroke-width="1.21019" stroke-linecap="round" stroke-linejoin="round"/>
<path d="M13.9529 13.5208L13.6965 15.2301L13.8105 19.5034L14.4468 16.2652L13.9529 13.5208Z" fill="#E4751F" stroke="#E4751F" stroke-width="1.21019" stroke-linecap="round" stroke-linejoin="round"/>
<path d="M14.4468 16.2653L13.8105 19.5035L14.2664 19.8168L17.0392 17.6517L17.1342 15.4771L14.4468 16.2653Z" fill="#F6851B" stroke="#F6851B" stroke-width="1.21019" stroke-linecap="round" stroke-linejoin="round"/>
<path d="M7.87524 15.4771L7.9512 17.6517L10.7241 19.8168L11.1799 19.5035L10.5532 16.2653L7.87524 15.4771Z" fill="#F6851B" stroke="#F6851B" stroke-width="1.21019" stroke-linecap="round" stroke-linejoin="round"/>
<path d="M14.4943 22.7985L14.5228 21.9153L14.2854 21.7064H10.7053L10.4869 21.9153L10.5059 22.7985L7.51465 21.3835L8.55923 22.2382L10.6768 23.7101H14.3139L16.441 22.2382L17.4856 21.3835L14.4943 22.7985Z" fill="#C0AD9E" stroke="#C0AD9E" stroke-width="1.21019" stroke-linecap="round" stroke-linejoin="round"/>
<path d="M14.2664 19.8167L13.8105 19.5033H11.18L10.7242 19.8167L10.4868 21.9153L10.7053 21.7064H14.2853L14.5227 21.9153L14.2664 19.8167Z" fill="#161616" stroke="#161616" stroke-width="1.21019" stroke-linecap="round" stroke-linejoin="round"/>
<path d="M23.8005 8.73469L24.6077 4.86028L23.4017 1.26123L14.2664 8.04146L17.78 11.0138L22.7465 12.4667L23.848 11.1847L23.3732 10.8429L24.1328 10.1497L23.5441 9.69385L24.3038 9.11455L23.8005 8.73469Z" fill="#763D16" stroke="#763D16" stroke-width="1.21019" stroke-linecap="round" stroke-linejoin="round"/>
<path d="M0.392334 4.86028L1.19951 8.73469L0.686713 9.11455L1.44641 9.69385L0.867143 10.1497L1.62683 10.8429L1.15202 11.1847L2.24409 12.4667L7.21061 11.0138L10.7241 8.04146L1.58885 1.26123L0.392334 4.86028Z" fill="#763D16" stroke="#763D16" stroke-width="1.21019" stroke-linecap="round" stroke-linejoin="round"/>
<path d="M22.7462 12.4667L17.7797 11.0138L19.2896 13.2834L17.0391 17.6516L20.0019 17.6136H24.4176L22.7462 12.4667Z" fill="#F6851B" stroke="#F6851B" stroke-width="1.21019" stroke-linecap="round" stroke-linejoin="round"/>
<path d="M7.21064 11.0138L2.24413 12.4667L0.591797 17.6136H4.99802L7.95133 17.6516L5.71024 13.2834L7.21064 11.0138Z" fill="#F6851B" stroke="#F6851B" stroke-width="1.21019" stroke-linecap="round" stroke-linejoin="round"/>
<path d="M13.9529 13.5207L14.2663 8.04151L15.7097 4.13855H9.2998L10.7242 8.04151L11.0566 13.5207L11.1705 15.2491L11.1801 19.5034H13.8105L13.8295 15.2491L13.9529 13.5207Z" fill="#F6851B" stroke="#F6851B" stroke-width="1.21019" stroke-linecap="round" stroke-linejoin="round"/>
</g>
<defs>
<clipPath id="clip0_161_127">
<rect width="25" height="25" fill="white"/>
</clipPath>
</defs>
</svg>
