<svg width="21" height="21" viewBox="0 0 21 21" fill="none" xmlns="http://www.w3.org/2000/svg">
<circle cx="10.5" cy="10.5" r="10.5" fill="#F3AA05"/>
<path d="M11.3911 12.5181H9.49805V16H8V6H11.3911C12.1174 6 12.7484 6.12535 13.284 6.37604C13.8288 6.61746 14.251 6.97957 14.5506 7.4624C14.8502 7.93593 15 8.52553 15 9.2312C15 9.92758 14.8502 10.5218 14.5506 11.0139C14.251 11.4968 13.8288 11.8682 13.284 12.1281C12.7484 12.3881 12.1174 12.5181 11.3911 12.5181ZM11.3774 7.29527H9.49805V11.2228H11.3774C12.0402 11.2228 12.5577 11.0464 12.93 10.6936C13.3113 10.3408 13.5019 9.85794 13.5019 9.24513C13.5019 8.62303 13.3113 8.14485 12.93 7.81059C12.5577 7.46704 12.0402 7.29527 11.3774 7.29527Z" fill="white"/>
</svg>
