<svg width="40" height="40" viewBox="0 0 40 40" fill="none" xmlns="http://www.w3.org/2000/svg">
<path d="M9.51295 18.4978H4.79268C2.14657 18.4978 0 16.3512 0 13.7051V4.79279C0 2.14662 2.14657 0 4.79268 0H9.51295C14.6206 0 18.7617 4.1412 18.7617 9.24892C18.7617 14.3566 14.6206 18.4978 9.51295 18.4978Z" fill="#52D390"/>
<path d="M35.2075 18.4978H30.4872C25.3796 18.4978 21.2385 14.3566 21.2385 9.24892C21.2385 4.1412 25.3796 0 30.4872 0H35.2075C37.8536 0 40.0002 2.14662 40.0002 4.79279V13.7051C40.0002 16.3512 37.8536 18.4978 35.2075 18.4978Z" fill="#52D390"/>
<path d="M18.7617 40.0001H4.79268C2.14657 40.0001 0 37.8535 0 35.2073V21.7701C0 21.6253 0.119456 21.5059 0.26425 21.5059C10.4795 21.5059 18.7617 29.7846 18.7617 40.0001Z" fill="#0DCE71"/>
<path d="M35.2075 40.0001H21.2385C21.2385 29.7846 29.5207 21.5059 39.7323 21.5059C39.8771 21.5059 39.9966 21.6253 39.9966 21.7701V35.2073C40.0002 37.8535 37.8536 40.0001 35.2075 40.0001Z" fill="#0DCE71"/>
</svg>
